<svg xmlns="http://www.w3.org/2000/svg" viewBox="0 0 32 32">
  <defs>
    <linearGradient id="aurora" x1="2" y1="2" x2="30" y2="30" gradientUnits="userSpaceOnUse">
      <stop stop-color="#67e8f9"/>
      <stop offset="0.34" stop-color="#7dd3fc"/>
      <stop offset="0.7" stop-color="#818cf8"/>
      <stop offset="1" stop-color="#c4b5fd"/>
    </linearGradient>
  </defs>
  <rect x="1" y="1" width="30" height="30" rx="8" fill="url(#aurora)"/>
  <rect x="1.75" y="1.75" width="28.5" height="28.5" rx="7.25" fill="none" stroke="#ffffff" stroke-opacity="0.55" stroke-width="1.5"/>

  <!-- Matches the current Lucide-style flask used in the app header. -->
  <g transform="translate(4 4)" fill="none" stroke="#1e1b4b" stroke-width="2" stroke-linecap="round" stroke-linejoin="round">
    <path d="M10 2v7.527a2 2 0 0 1-.211.896L4.72 20.55A1 1 0 0 0 5.62 22h12.76a1 1 0 0 0 .9-1.45l-5.069-10.127A2 2 0 0 1 14 9.527V2"/>
    <path d="M8.5 2h7"/>
    <path d="M7 16h10"/>
  </g>

  <circle cx="13.2" cy="22" r="1.15" fill="#22d3ee"/>
  <circle cx="19" cy="20.4" r="0.85" fill="#8b5cf6"/>
</svg>
